<svg width="1314" height="934" viewBox="0 0 1314 934" fill="none" xmlns="http://www.w3.org/2000/svg">
<mask id="path-1-inside-1_240_1687" fill="white">
<path d="M653 139H1149V421H1314V934H975V810H298V885H14V634H110V244H0V0H653V139Z"/>
</mask>
<path d="M653 139H1149V421H1314V934H975V810H298V885H14V634H110V244H0V0H653V139Z" fill="#D9D9D9"/>
<path d="M653 139H643V149H653V139ZM1149 139H1159V129H1149V139ZM1149 421H1139V431H1149V421ZM1314 421H1324V411H1314V421ZM1314 934V944H1324V934H1314ZM975 934H965V944H975V934ZM975 810H985V800H975V810ZM298 810V800H288V810H298ZM298 885V895H308V885H298ZM14 885H4V895H14V885ZM14 634V624H4V634H14ZM110 634V644H120V634H110ZM110 244H120V234H110V244ZM0 244H-10V254H0V244ZM0 0V-10H-10V0H0ZM653 0H663V-10H653V0ZM653 139V149H1149V139V129H653V139ZM1149 139H1139V421H1149H1159V139H1149ZM1149 421V431H1314V421V411H1149V421ZM1314 421H1304V934H1314H1324V421H1314ZM1314 934V924H975V934V944H1314V934ZM975 934H985V810H975H965V934H975ZM975 810V800H298V810V820H975V810ZM298 810H288V885H298H308V810H298ZM298 885V875H14V885V895H298V885ZM14 885H24V634H14H4V885H14ZM14 634V644H110V634V624H14V634ZM110 634H120V244H110H100V634H110ZM110 244V234H0V244V254H110V244ZM0 244H10V0H0H-10V244H0ZM0 0V10H653V0V-10H0V0ZM653 0H643V139H653H663V0H653Z" fill="#F10000" mask="url(#path-1-inside-1_240_1687)"/>
</svg>
