<svg width="1728" height="996" viewBox="0 0 1728 996" fill="none" xmlns="http://www.w3.org/2000/svg">
<g clip-path="url(#clip0_306_346)">
<rect width="1728" height="996" fill="url(#paint0_linear_306_346)"/>
<rect x="1005" y="378" width="424" height="618" fill="url(#paint1_linear_306_346)"/>
<path d="M1726.94 320H1728V996H1429V320H1430.06L1578.5 15L1726.94 320Z" fill="url(#paint2_linear_306_346)"/>
<path d="M1009 998H675V622H1009V998Z" fill="url(#paint3_linear_306_346)"/>
<path d="M969 622H715V517H969V622Z" fill="url(#paint4_linear_306_346)"/>
<path d="M934 517H750V435H934V517Z" fill="url(#paint5_linear_306_346)"/>
<path d="M0 996H295V0H0V996Z" fill="url(#paint6_linear_306_346)"/>
<path d="M132 568.907H147.062L196.312 591.876V572.201L147.644 548.774V548.297H132V568.907ZM132 521.479H147.061L196.312 544.448V524.773L147.644 501.348V500.87H132V521.479ZM132.248 474.053H147.062L196.312 497.021V477.347L147.892 454.04V453.443H132.248V474.053ZM132.248 426.378H146.65V426.434L196.312 449.595V429.92L147.892 406.613V405.768H132.248V426.378ZM132.248 378.95H146.65V379.007L196.312 402.167V382.492L147.892 359.186V358.341H132.248V378.95Z" fill="url(#paint7_linear_306_346)"/>
<path d="M196.312 592H237.531V572.136H196.312V592ZM147.302 548.298H132V567.666H147.981L196.312 545.126V545.069H237.531V524.708H196.312L147.302 548.298ZM147.304 500.87H132V520.238H147.981L196.312 497.698V497.643H237.531V477.281H196.312L147.304 500.87ZM147.304 453.443H132.248V472.812H147.981L196.312 450.271V450.216H237.531V429.854H196.312L147.304 453.443ZM147.817 405.769H132.248V425.136H146.65V425.137H148.513L196.312 402.845V402.788H237.531V382.427H196.312L147.817 405.769ZM147.819 358.341H132.248V377.709H148.514L196.312 355.417V355.361H237.531V335H196.312L147.819 358.341Z" fill="url(#paint8_linear_306_346)"/>
<path d="M132 805.907H147.062L196.312 828.876V809.201L147.644 785.774V785.297H132V805.907ZM132 758.479H147.061L196.312 781.448V761.773L147.644 738.348V737.87H132V758.479ZM132.248 711.053H147.062L196.312 734.021V714.347L147.892 691.04V690.443H132.248V711.053ZM132.248 663.378H146.65V663.434L196.312 686.595V666.92L147.892 643.613V642.768H132.248V663.378ZM132.248 615.95H146.65V616.007L196.312 639.167V619.492L147.892 596.186V595.341H132.248V615.95Z" fill="url(#paint9_linear_306_346)"/>
<path d="M196.312 829H237.531V809.136H196.312V829ZM147.302 785.298H132V804.666H147.981L196.312 782.126V782.069H237.531V761.708H196.312L147.302 785.298ZM147.304 737.87H132V757.238H147.981L196.312 734.698V734.643H237.531V714.281H196.312L147.304 737.87ZM147.304 690.443H132.248V709.812H147.981L196.312 687.271V687.216H237.531V666.854H196.312L147.304 690.443ZM147.817 642.769H132.248V662.136H146.65V662.137H148.513L196.312 639.845V639.788H237.531V619.427H196.312L147.817 642.769ZM147.819 595.341H132.248V614.709H148.514L196.312 592.417V592.361H237.531V572H196.312L147.819 595.341Z" fill="url(#paint10_linear_306_346)"/>
<path d="M400.531 707.907H385.469L336.219 730.876V711.201L384.888 687.774V687.297H400.531V707.907ZM400.531 660.479H385.471L336.219 683.448V663.773L384.888 640.348V639.87H400.531V660.479ZM400.283 613.053H385.469L336.219 636.021V616.347L384.64 593.04V592.443H400.283V613.053ZM400.283 565.378H385.881V565.434L336.219 588.595V568.92L384.64 545.613V544.768H400.283V565.378ZM400.283 517.95H385.881V518.007L336.219 541.167V521.492L384.64 498.186V497.341H400.283V517.95Z" fill="url(#paint11_linear_306_346)"/>
<path d="M336.219 731H295V711.136H336.219V731ZM385.229 687.298H400.531V706.666H384.55L336.219 684.126V684.069H295V663.708H336.219L385.229 687.298ZM385.228 639.87H400.531V659.238H384.55L336.219 636.698V636.643H295V616.281H336.219L385.228 639.87ZM385.228 592.443H400.283V611.812H384.55L336.219 589.271V589.216H295V568.854H336.219L385.228 592.443ZM384.714 544.769H400.283V564.136H385.881V564.137H384.019L336.219 541.845V541.788H295V521.427H336.219L384.714 544.769ZM384.712 497.341H400.283V516.709H384.018L336.219 494.417V494.361H295V474H336.219L384.712 497.341Z" fill="url(#paint12_linear_306_346)"/>
<rect x="237" y="335" width="441" height="661" fill="url(#paint13_linear_306_346)"/>
<path d="M132 995.907H147.062L196.312 1018.88V999.201L147.644 975.774V975.297H132V995.907ZM132 948.479H147.061L196.312 971.448V951.773L147.644 928.348V927.87H132V948.479ZM132.248 901.053H147.062L196.312 924.021V904.347L147.892 881.04V880.443H132.248V901.053ZM132.248 853.378H146.65V853.434L196.312 876.595V856.92L147.892 833.613V832.768H132.248V853.378ZM132.248 805.95H146.65V806.007L196.312 829.167V809.492L147.892 786.186V785.341H132.248V805.95Z" fill="url(#paint14_linear_306_346)"/>
<path d="M196.312 1019H237.531V999.136H196.312V1019ZM147.302 975.298H132V994.666H147.981L196.312 972.126V972.069H237.531V951.708H196.312L147.302 975.298ZM147.304 927.87H132V947.238H147.981L196.312 924.698V924.643H237.531V904.281H196.312L147.304 927.87ZM147.304 880.443H132.248V899.812H147.981L196.312 877.271V877.216H237.531V856.854H196.312L147.304 880.443ZM147.817 832.769H132.248V852.136H146.65V852.137H148.513L196.312 829.845V829.788H237.531V809.427H196.312L147.817 832.769ZM147.819 785.341H132.248V804.709H148.514L196.312 782.417V782.361H237.531V762H196.312L147.819 785.341Z" fill="url(#paint15_linear_306_346)"/>
<rect x="1022" y="286" width="391" height="92" fill="url(#paint16_linear_306_346)"/>
</g>
<defs>
<linearGradient id="paint0_linear_306_346" x1="864" y1="996" x2="864" y2="0" gradientUnits="userSpaceOnUse">
<stop stop-color="#0F1133"/>
<stop offset="1" stop-color="#2D3399"/>
</linearGradient>
<linearGradient id="paint1_linear_306_346" x1="1498.52" y1="622.474" x2="992.891" y2="627.75" gradientUnits="userSpaceOnUse">
<stop stop-color="#737373"/>
<stop offset="0.648012" stop-color="#CECBCB"/>
<stop offset="1" stop-color="#737373"/>
</linearGradient>
<linearGradient id="paint2_linear_306_346" x1="1728" y1="658" x2="1429" y2="658" gradientUnits="userSpaceOnUse">
<stop offset="0.0817308" stop-color="#737373"/>
<stop offset="0.543269" stop-color="#CECBCB"/>
<stop offset="0.975962" stop-color="#737373"/>
</linearGradient>
<linearGradient id="paint3_linear_306_346" x1="1008.52" y1="883.899" x2="675" y2="883.899" gradientUnits="userSpaceOnUse">
<stop offset="0.221154" stop-color="#D9D9D9"/>
<stop offset="0.956731" stop-color="#737373"/>
</linearGradient>
<linearGradient id="paint4_linear_306_346" x1="968.637" y1="590.137" x2="715" y2="590.137" gradientUnits="userSpaceOnUse">
<stop offset="0.221154" stop-color="#D9D9D9"/>
<stop offset="0.956731" stop-color="#737373"/>
</linearGradient>
<linearGradient id="paint5_linear_306_346" x1="933.737" y1="492.116" x2="750" y2="492.116" gradientUnits="userSpaceOnUse">
<stop offset="0.221154" stop-color="#D9D9D9"/>
<stop offset="0.956731" stop-color="#737373"/>
</linearGradient>
<linearGradient id="paint6_linear_306_346" x1="-28.5" y1="498" x2="165" y2="498" gradientUnits="userSpaceOnUse">
<stop stop-color="#737373"/>
<stop offset="0.355769" stop-color="#CECBCB"/>
<stop offset="1" stop-color="#737373"/>
</linearGradient>
<linearGradient id="paint7_linear_306_346" x1="132" y1="380.153" x2="196.312" y2="380.153" gradientUnits="userSpaceOnUse">
<stop stop-color="#7A7A7A"/>
<stop offset="0.9999" stop-color="#B8B8B8"/>
<stop offset="1" stop-color="#7A7A7A"/>
</linearGradient>
<linearGradient id="paint8_linear_306_346" x1="134.59" y1="463.615" x2="260.191" y2="463.514" gradientUnits="userSpaceOnUse">
<stop offset="0.413462" stop-color="#CECBCB"/>
<stop offset="0.845119" stop-color="#737373"/>
<stop offset="0.913462" stop-color="#CECBCB" stop-opacity="0.93"/>
<stop offset="1" stop-color="#737373"/>
</linearGradient>
<linearGradient id="paint9_linear_306_346" x1="132" y1="617.153" x2="196.312" y2="617.153" gradientUnits="userSpaceOnUse">
<stop stop-color="#7A7A7A"/>
<stop offset="0.9999" stop-color="#B8B8B8"/>
<stop offset="1" stop-color="#7A7A7A"/>
</linearGradient>
<linearGradient id="paint10_linear_306_346" x1="134.59" y1="700.615" x2="260.191" y2="700.514" gradientUnits="userSpaceOnUse">
<stop offset="0.413462" stop-color="#CECBCB"/>
<stop offset="0.845119" stop-color="#737373"/>
<stop offset="0.913462" stop-color="#CECBCB" stop-opacity="0.93"/>
<stop offset="1" stop-color="#737373"/>
</linearGradient>
<linearGradient id="paint11_linear_306_346" x1="400.531" y1="519.153" x2="336.219" y2="519.153" gradientUnits="userSpaceOnUse">
<stop stop-color="#7A7A7A"/>
<stop offset="0.495192" stop-color="#B8B8B8"/>
<stop offset="1" stop-color="#7A7A7A"/>
</linearGradient>
<linearGradient id="paint12_linear_306_346" x1="397.942" y1="602.615" x2="272.34" y2="602.514" gradientUnits="userSpaceOnUse">
<stop offset="0.413462" stop-color="#CECBCB"/>
<stop offset="0.845119" stop-color="#737373"/>
<stop offset="0.913462" stop-color="#CECBCB" stop-opacity="0.93"/>
<stop offset="1" stop-color="#737373"/>
</linearGradient>
<linearGradient id="paint13_linear_306_346" x1="678" y1="665.5" x2="151.5" y2="666" gradientUnits="userSpaceOnUse">
<stop offset="0.0432692" stop-color="#737373"/>
<stop offset="0.456731" stop-color="#D9D9D9"/>
<stop offset="1" stop-color="#737373"/>
</linearGradient>
<linearGradient id="paint14_linear_306_346" x1="132" y1="807.153" x2="196.312" y2="807.153" gradientUnits="userSpaceOnUse">
<stop stop-color="#7A7A7A"/>
<stop offset="0.9999" stop-color="#B8B8B8"/>
<stop offset="1" stop-color="#7A7A7A"/>
</linearGradient>
<linearGradient id="paint15_linear_306_346" x1="134.59" y1="890.615" x2="260.191" y2="890.514" gradientUnits="userSpaceOnUse">
<stop offset="0.413462" stop-color="#CECBCB"/>
<stop offset="0.845119" stop-color="#737373"/>
<stop offset="0.913462" stop-color="#CECBCB" stop-opacity="0.93"/>
<stop offset="1" stop-color="#737373"/>
</linearGradient>
<linearGradient id="paint16_linear_306_346" x1="1477.11" y1="322.394" x2="1012.72" y2="352.414" gradientUnits="userSpaceOnUse">
<stop stop-color="#737373"/>
<stop offset="0.672715" stop-color="#CECBCB"/>
<stop offset="1" stop-color="#737373"/>
</linearGradient>
<clipPath id="clip0_306_346">
<rect width="1728" height="996" fill="white"/>
</clipPath>
</defs>
</svg>
