<svg width="1728" height="996" viewBox="0 0 1728 996" fill="none" xmlns="http://www.w3.org/2000/svg">
<rect width="1728" height="996" fill="#0F1133"/>
<rect x="1009" width="424" height="618" fill="url(#paint0_linear_306_193)"/>
<path d="M0 736H295V0H0V736Z" fill="url(#paint1_linear_306_193)"/>
<rect x="1429" width="299" height="736" fill="url(#paint2_linear_306_193)"/>
<rect x="678" width="331" height="736" fill="url(#paint3_linear_306_193)"/>
<rect x="237" width="441" height="736" fill="url(#paint4_linear_306_193)"/>
<path d="M132 236.907H147.062L196.312 259.876V240.201L147.644 216.775V216.297H132V236.907ZM132 189.48H147.061L196.312 212.448V192.774L147.644 169.348V168.87H132V189.48ZM132.248 142.053H147.062L196.312 165.022V145.347L147.892 122.04V121.444H132.248V142.053ZM132.248 94.3782H146.65V94.4338L196.312 117.595V97.9202L147.892 74.6135V73.7678H132.248V94.3782ZM132.248 46.9504H146.65V47.0071L196.312 70.1672V50.4924L147.892 27.1858V26.3411H132.248V46.9504Z" fill="url(#paint5_linear_306_193)"/>
<path d="M196.312 260H237.531V240.136H196.312V260ZM147.302 216.298H132V235.666H147.981L196.312 213.126V213.069H237.531V192.708H196.312L147.302 216.298ZM147.304 168.87H132V188.238H147.981L196.312 165.698V165.643H237.531V145.281H196.312L147.304 168.87ZM147.304 121.443H132.248V140.812H147.981L196.312 118.271V118.216H237.531V97.8545H196.312L147.304 121.443ZM147.817 73.7686H132.248V93.1357H146.65V93.1367H148.513L196.312 70.8447V70.7881H237.531V50.4268H196.312L147.817 73.7686ZM147.819 26.3408H132.248V45.709H148.514L196.312 23.417V23.3613H237.531V3H196.312L147.819 26.3408Z" fill="url(#paint6_linear_306_193)"/>
<g opacity="0.5">
<path d="M132 711.907H147.062L196.312 734.876V715.201L147.644 691.774V691.297H132V711.907ZM132 664.479H147.061L196.312 687.448V667.773L147.644 644.348V643.87H132V664.479ZM132.248 617.053H147.062L196.312 640.021V620.347L147.892 597.04V596.443H132.248V617.053ZM132.248 569.378H146.65V569.434L196.312 592.595V572.92L147.892 549.613V548.768H132.248V569.378ZM132.248 521.95H146.65V522.007L196.312 545.167V525.492L147.892 502.186V501.341H132.248V521.95Z" fill="url(#paint7_linear_306_193)"/>
<path d="M196.312 735H237.531V715.136H196.312V735ZM147.302 691.298H132V710.666H147.981L196.312 688.126V688.069H237.531V667.708H196.312L147.302 691.298ZM147.304 643.87H132V663.238H147.981L196.312 640.698V640.643H237.531V620.281H196.312L147.304 643.87ZM147.304 596.443H132.248V615.812H147.981L196.312 593.271V593.216H237.531V572.854H196.312L147.304 596.443ZM147.817 548.769H132.248V568.136H146.65V568.137H148.513L196.312 545.845V545.788H237.531V525.427H196.312L147.817 548.769ZM147.819 501.341H132.248V520.709H148.514L196.312 498.417V498.361H237.531V478H196.312L147.819 501.341Z" fill="url(#paint8_linear_306_193)"/>
</g>
<path d="M132 473.907H147.062L196.312 496.876V477.201L147.644 453.775V453.297H132V473.907ZM132 426.48H147.061L196.312 449.448V429.774L147.644 406.348V405.87H132V426.48ZM132.248 379.053H147.062L196.312 402.022V382.347L147.892 359.04V358.444H132.248V379.053ZM132.248 331.378H146.65V331.434L196.312 354.595V334.92L147.892 311.614V310.768H132.248V331.378ZM132.248 283.95H146.65V284.007L196.312 307.167V287.492L147.892 264.186V263.341H132.248V283.95Z" fill="url(#paint9_linear_306_193)"/>
<path d="M196.312 497H237.531V477.136H196.312V497ZM147.302 453.298H132V472.666H147.981L196.312 450.126V450.069H237.531V429.708H196.312L147.302 453.298ZM147.304 405.87H132V425.238H147.981L196.312 402.698V402.643H237.531V382.281H196.312L147.304 405.87ZM147.304 358.443H132.248V377.812H147.981L196.312 355.271V355.216H237.531V334.854H196.312L147.304 358.443ZM147.817 310.769H132.248V330.136H146.65V330.137H148.513L196.312 307.845V307.788H237.531V287.427H196.312L147.817 310.769ZM147.819 263.341H132.248V282.709H148.514L196.312 260.417V260.361H237.531V240H196.312L147.819 263.341Z" fill="url(#paint10_linear_306_193)"/>
<path d="M132 663.907H147.062L196.312 686.876V667.201L147.644 643.774V643.297H132V663.907ZM132 616.479H147.061L196.312 639.448V619.773L147.644 596.348V595.87H132V616.479ZM132.248 569.053H147.062L196.312 592.021V572.347L147.892 549.04V548.443H132.248V569.053ZM132.248 521.378H146.65V521.434L196.312 544.595V524.92L147.892 501.613V500.768H132.248V521.378ZM132.248 473.95H146.65V474.007L196.312 497.167V477.492L147.892 454.186V453.341H132.248V473.95Z" fill="url(#paint11_linear_306_193)"/>
<path d="M196.312 687H237.531V667.136H196.312V687ZM147.302 643.298H132V662.666H147.981L196.312 640.126V640.069H237.531V619.708H196.312L147.302 643.298ZM147.304 595.87H132V615.238H147.981L196.312 592.698V592.643H237.531V572.281H196.312L147.304 595.87ZM147.304 548.443H132.248V567.812H147.981L196.312 545.271V545.216H237.531V524.854H196.312L147.304 548.443ZM147.817 500.769H132.248V520.136H146.65V520.137H148.513L196.312 497.845V497.788H237.531V477.427H196.312L147.817 500.769ZM147.819 453.341H132.248V472.709H148.514L196.312 450.417V450.361H237.531V430H196.312L147.819 453.341Z" fill="url(#paint12_linear_306_193)"/>
<mask id="path-14-inside-1_306_193" fill="white">
<path d="M986.866 239.425H1499.47V384.463H1669.18V712.463H1499.47V753H1556V866H1361V811.102H619.98V875H326.471V661.153H425.684V328.883H312V121H986.866V239.425Z"/>
</mask>
<path d="M986.866 239.425H1499.47V384.463H1669.18V712.463H1499.47V753H1556V866H1361V811.102H619.98V875H326.471V661.153H425.684V328.883H312V121H986.866V239.425Z" fill="#D9D9D9"/>
<path d="M986.866 239.425H972.866V253.425H986.866V239.425ZM1499.47 239.425H1513.47V225.425H1499.47V239.425ZM1499.47 384.463H1485.47V398.463H1499.47V384.463ZM1669.18 384.463H1683.18V370.463H1669.18V384.463ZM1669.18 712.463V726.463H1683.18V712.463H1669.18ZM1499.47 712.463V698.463H1485.47V712.463H1499.47ZM1499.47 753H1485.47V767H1499.47V753ZM1556 753H1570V739H1556V753ZM1556 866V880H1570V866H1556ZM1361 866H1347V880H1361V866ZM1361 811.102H1375V797.102H1361V811.102ZM619.98 811.102V797.102H605.98V811.102H619.98ZM619.98 875V889H633.98V875H619.98ZM326.471 875H312.471V889H326.471V875ZM326.471 661.153V647.153H312.471V661.153H326.471ZM425.684 661.153V675.153H439.684V661.153H425.684ZM425.684 328.883H439.684V314.883H425.684V328.883ZM312 328.883H298V342.883H312V328.883ZM312 121V107H298V121H312ZM986.866 121H1000.87V107H986.866V121ZM986.866 239.425V253.425H1499.47V239.425V225.425H986.866V239.425ZM1499.47 239.425H1485.47V384.463H1499.47H1513.47V239.425H1499.47ZM1499.47 384.463V398.463H1669.18V384.463V370.463H1499.47V384.463ZM1669.18 384.463H1655.18V712.463H1669.18H1683.18V384.463H1669.18ZM1669.18 712.463V698.463H1499.47V712.463V726.463H1669.18V712.463ZM1499.47 712.463H1485.47V753H1499.47H1513.47V712.463H1499.47ZM1499.47 753V767H1556V753V739H1499.47V753ZM1556 753H1542V866H1556H1570V753H1556ZM1556 866V852H1361V866V880H1556V866ZM1361 866H1375V811.102H1361H1347V866H1361ZM1361 811.102V797.102H619.98V811.102V825.102H1361V811.102ZM619.98 811.102H605.98V875H619.98H633.98V811.102H619.98ZM619.98 875V861H326.471V875V889H619.98V875ZM326.471 875H340.471V661.153H326.471H312.471V875H326.471ZM326.471 661.153V675.153H425.684V661.153V647.153H326.471V661.153ZM425.684 661.153H439.684V328.883H425.684H411.684V661.153H425.684ZM425.684 328.883V314.883H312V328.883V342.883H425.684V328.883ZM312 328.883H326V121H312H298V328.883H312ZM312 121V135H986.866V121V107H312V121ZM986.866 121H972.866V239.425H986.866H1000.87V121H986.866Z" fill="#F10000" mask="url(#path-14-inside-1_306_193)"/>
<defs>
<linearGradient id="paint0_linear_306_193" x1="1502.52" y1="244.474" x2="996.891" y2="249.75" gradientUnits="userSpaceOnUse">
<stop stop-color="#737373"/>
<stop offset="0.648012" stop-color="#CECBCB"/>
<stop offset="1" stop-color="#737373"/>
</linearGradient>
<linearGradient id="paint1_linear_306_193" x1="-28.5" y1="368" x2="165" y2="368" gradientUnits="userSpaceOnUse">
<stop stop-color="#737373"/>
<stop offset="0.355769" stop-color="#CECBCB"/>
<stop offset="1" stop-color="#737373"/>
</linearGradient>
<linearGradient id="paint2_linear_306_193" x1="1728" y1="368" x2="1429" y2="368" gradientUnits="userSpaceOnUse">
<stop offset="0.0817308" stop-color="#737373"/>
<stop offset="0.543269" stop-color="#CECBCB"/>
<stop offset="0.975962" stop-color="#737373"/>
</linearGradient>
<linearGradient id="paint3_linear_306_193" x1="1009" y1="368" x2="678" y2="368" gradientUnits="userSpaceOnUse">
<stop offset="0.221154" stop-color="#D9D9D9"/>
<stop offset="0.956731" stop-color="#737373"/>
</linearGradient>
<linearGradient id="paint4_linear_306_193" x1="678" y1="368" x2="151.5" y2="368.449" gradientUnits="userSpaceOnUse">
<stop offset="0.0432692" stop-color="#737373"/>
<stop offset="0.456731" stop-color="#D9D9D9"/>
<stop offset="1" stop-color="#737373"/>
</linearGradient>
<linearGradient id="paint5_linear_306_193" x1="132" y1="48.1534" x2="196.312" y2="48.1534" gradientUnits="userSpaceOnUse">
<stop stop-color="#7A7A7A"/>
<stop offset="0.9999" stop-color="#B8B8B8"/>
<stop offset="1" stop-color="#7A7A7A"/>
</linearGradient>
<linearGradient id="paint6_linear_306_193" x1="134.59" y1="131.615" x2="260.191" y2="131.514" gradientUnits="userSpaceOnUse">
<stop offset="0.413462" stop-color="#CECBCB"/>
<stop offset="0.845119" stop-color="#737373"/>
<stop offset="0.913462" stop-color="#CECBCB" stop-opacity="0.93"/>
<stop offset="1" stop-color="#737373"/>
</linearGradient>
<linearGradient id="paint7_linear_306_193" x1="132" y1="523.153" x2="196.312" y2="523.153" gradientUnits="userSpaceOnUse">
<stop stop-color="#7A7A7A"/>
<stop offset="0.9999" stop-color="#B8B8B8"/>
<stop offset="1" stop-color="#7A7A7A"/>
</linearGradient>
<linearGradient id="paint8_linear_306_193" x1="134.59" y1="606.615" x2="260.191" y2="606.514" gradientUnits="userSpaceOnUse">
<stop offset="0.413462" stop-color="#CECBCB"/>
<stop offset="0.845119" stop-color="#737373"/>
<stop offset="0.913462" stop-color="#CECBCB" stop-opacity="0.93"/>
<stop offset="1" stop-color="#737373"/>
</linearGradient>
<linearGradient id="paint9_linear_306_193" x1="132" y1="285.153" x2="196.312" y2="285.153" gradientUnits="userSpaceOnUse">
<stop stop-color="#7A7A7A"/>
<stop offset="0.9999" stop-color="#B8B8B8"/>
<stop offset="1" stop-color="#7A7A7A"/>
</linearGradient>
<linearGradient id="paint10_linear_306_193" x1="134.59" y1="368.615" x2="260.191" y2="368.514" gradientUnits="userSpaceOnUse">
<stop offset="0.413462" stop-color="#CECBCB"/>
<stop offset="0.845119" stop-color="#737373"/>
<stop offset="0.913462" stop-color="#CECBCB" stop-opacity="0.93"/>
<stop offset="1" stop-color="#737373"/>
</linearGradient>
<linearGradient id="paint11_linear_306_193" x1="132" y1="475.153" x2="196.312" y2="475.153" gradientUnits="userSpaceOnUse">
<stop stop-color="#7A7A7A"/>
<stop offset="0.9999" stop-color="#B8B8B8"/>
<stop offset="1" stop-color="#7A7A7A"/>
</linearGradient>
<linearGradient id="paint12_linear_306_193" x1="134.59" y1="558.615" x2="260.191" y2="558.514" gradientUnits="userSpaceOnUse">
<stop offset="0.413462" stop-color="#CECBCB"/>
<stop offset="0.845119" stop-color="#737373"/>
<stop offset="0.913462" stop-color="#CECBCB" stop-opacity="0.93"/>
<stop offset="1" stop-color="#737373"/>
</linearGradient>
</defs>
</svg>
